<svg width="697" height="700" viewBox="0 0 697 700" fill="none" xmlns="http://www.w3.org/2000/svg">
<rect width="697" height="700" fill="black"/>
<rect x="191.676" y="140" width="309.778" height="420" rx="8" fill="#525252"/>
<path d="M345.66 291.309L240 397.423V291.309H345.66Z" stroke="white" stroke-width="2"/>
<path d="M349.066 292.729L454.726 398.844H349.066V292.729Z" stroke="white" stroke-width="2"/>
<path d="M303.267 230.622C303.267 237.635 297.606 243.314 290.633 243.314C283.66 243.314 278 237.635 278 230.622C278 223.608 283.66 217.93 290.633 217.93C297.606 217.93 303.267 223.608 303.267 230.622Z" fill="white" stroke="white" stroke-width="2"/>
<path d="M364.11 464.198C364.11 493.897 340.138 517.966 310.576 517.966C281.015 517.966 257.043 493.897 257.043 464.198C257.043 434.498 281.015 410.43 310.576 410.43C340.138 410.43 364.11 434.498 364.11 464.198Z" stroke="white" stroke-width="2"/>
<rect x="349.066" y="181.773" width="107.067" height="107.536" fill="white" stroke="white" stroke-width="2"/>
</svg>
